<svg width="20" height="20" viewBox="0 0 20 20" fill="none" xmlns="http://www.w3.org/2000/svg">
<g opacity="0.66">
<path d="M15.7749 16.6667C14.3705 16.6667 12.9305 16.315 11.4549 15.6117C9.97936 14.9078 8.60603 13.9203 7.33492 12.6492C6.07381 11.3775 5.09159 10.0067 4.38825 8.53671C3.68492 7.06671 3.33325 5.62949 3.33325 4.22504C3.33325 3.97504 3.41659 3.76393 3.58325 3.59171C3.74992 3.41949 3.95825 3.33337 4.20825 3.33337H6.26908C6.49575 3.33337 6.69353 3.40476 6.86242 3.54754C7.03131 3.69032 7.14547 3.8731 7.20492 4.09587L7.61825 6.08337C7.65714 6.31671 7.6502 6.52032 7.59742 6.69421C7.5452 6.8681 7.45297 7.0106 7.32075 7.12171L5.49159 8.82671C5.83381 9.44782 6.21186 10.0245 6.62575 10.5567C7.03964 11.0895 7.48131 11.5942 7.95075 12.0709C8.43409 12.5542 8.95464 13.0042 9.51242 13.4209C10.0702 13.837 10.6824 14.2298 11.3491 14.5992L13.1316 12.785C13.2671 12.6389 13.4196 12.5425 13.5891 12.4959C13.7585 12.4498 13.9458 12.4406 14.1508 12.4684L15.9041 12.8267C16.1302 12.8823 16.3138 12.9962 16.4549 13.1684C16.596 13.3412 16.6666 13.5392 16.6666 13.7625V15.7917C16.6666 16.0417 16.5805 16.25 16.4083 16.4167C16.236 16.5834 16.0249 16.6667 15.7749 16.6667Z" fill="white"/>
</g>
</svg>
