<svg width="4049" height="1552" viewBox="0 0 4049 1552" fill="none" xmlns="http://www.w3.org/2000/svg">
<path d="M772.624 780.488L802.531 780.771L802.412 793.443L770.73 793.144L770.311 837.498L757.639 837.378L758.058 793.024L726.377 792.725L726.497 780.053L756.404 780.335L720.699 722.967L735.716 723.109L764.616 769.577L794.389 723.663L809.406 723.805L772.624 780.488Z" fill="#055173"/>
<path d="M1569.05 745.325L1492.43 747.721L1449.34 684.192C1461.26 681.833 1484.89 672.48 1484.5 660.008C1484.04 645.756 1452.61 637.549 1443.63 637.814L1418.44 638.597L1388.24 594.044L1332.5 595.777L1350.06 640.724L1347.8 640.794L1349.25 687.705L1368.24 687.17L1393.13 750.85L1290.34 753.991L1245.44 711.8L1214.06 712.79L1252.6 774.403L1254.17 824.901L1219.54 888.747L1250.91 887.771L1293.12 842.859L1395.91 839.663L1375.01 904.781L1356.05 905.343L1357.54 952.28L1359.74 952.211L1345.05 998.147L1400.8 996.413L1428.14 950.099L1453.3 949.316C1462.3 949.036 1493.17 938.824 1492.72 924.585C1492.32 912.099 1468.2 904.217 1456.13 902.631L1495.21 836.534L1571.82 834.138C1597.97 833.311 1688.05 813.081 1687.17 786.081C1686.34 759.107 1595.21 744.484 1569.06 745.283L1569.05 745.325Z" fill="#055173"/>
<path d="M1756.71 705.358C1750.06 705.358 1746.74 702.033 1746.74 695.383V677.275C1746.74 670.625 1750.06 667.3 1756.71 667.3H1881.94C1888.59 667.3 1891.91 670.625 1891.91 677.275V694.616C1891.91 699.834 1889.36 705.307 1884.24 711.036C1863.27 734.67 1848.59 758.252 1840.2 781.783C1831.81 805.313 1827.61 833.704 1827.61 866.954V876.469C1827.61 883.119 1824.29 886.444 1817.64 886.444H1794.62C1787.97 886.444 1784.64 883.119 1784.64 876.469V872.325C1784.64 835.392 1790.73 804.341 1802.91 779.174C1815.18 754.006 1831.45 729.401 1851.71 705.358V704.745C1847.62 705.154 1843.52 705.358 1839.43 705.358H1756.71ZM1921.38 704.745C1913.71 704.745 1909.87 701.42 1909.87 694.769V675.433C1909.87 668.783 1913.71 665.458 1921.38 665.458H2079.14C2086.81 665.458 2090.65 668.783 2090.65 675.433V694.769C2090.65 701.42 2086.81 704.745 2079.14 704.745H2022.66V877.083C2022.66 882.709 2020.11 885.523 2014.99 885.523H1985.53C1980.41 885.523 1977.85 882.709 1977.85 877.083V704.745H1921.38ZM2077.14 885.523C2071 885.523 2067.94 882.454 2067.94 876.315V733.595C2067.94 727.457 2071 724.388 2077.14 724.388H2101.39C2107.53 724.388 2110.6 727.457 2110.6 733.595V746.179H2111.21C2113.87 739.632 2118.32 733.851 2124.56 728.838C2130.8 723.825 2138.17 721.318 2146.66 721.318C2152.49 721.318 2157.3 722.035 2161.09 723.467C2164.67 724.797 2166.05 727.252 2165.23 730.833L2160.93 749.095C2160.01 753.187 2157.25 754.415 2152.65 752.778C2149.99 751.857 2147.43 751.397 2144.97 751.397C2135.15 751.397 2127.02 757.28 2120.57 769.045C2114.13 780.811 2110.91 797.947 2110.91 820.455V876.315C2110.91 882.454 2107.84 885.523 2101.7 885.523H2077.14ZM2179.96 842.554C2179.96 822.092 2189.73 807.257 2209.27 798.05C2228.82 788.842 2251.12 783.931 2276.18 783.317V777.179C2276.18 767.766 2273.83 761.116 2269.12 757.229C2264.42 753.341 2257.87 751.397 2249.48 751.397C2243.55 751.397 2238.28 752.267 2233.67 754.006C2229.17 755.643 2225.23 757.587 2221.86 759.837C2218.58 761.986 2215.62 764.186 2212.96 766.436C2208.25 770.529 2204.36 770.733 2201.29 767.05L2188.56 751.397C2185.39 747.509 2186.15 743.519 2190.86 739.427C2194.44 736.255 2198.58 733.493 2203.29 731.14C2208.1 728.787 2214.44 726.587 2222.32 724.541C2230.2 722.393 2240.43 721.318 2253.01 721.318C2274.29 721.318 2290.61 726.229 2301.97 736.051C2313.42 745.872 2319.15 760.349 2319.15 779.481V876.315C2319.15 882.454 2316.08 885.523 2309.95 885.523H2284.78C2279.25 885.523 2276.49 882.454 2276.49 876.315V871.711H2276.18C2270.15 877.543 2262.88 881.84 2254.39 884.602C2246 887.262 2238.28 888.592 2231.22 888.592C2214.44 888.592 2201.7 884.5 2193.01 876.315C2184.31 868.028 2179.96 856.774 2179.96 842.554ZM2225.39 841.633C2225.39 845.214 2226.1 848.334 2227.54 850.994C2228.97 853.552 2231.22 855.444 2234.29 856.672C2237.36 857.9 2240.79 858.514 2244.57 858.514C2249.79 858.514 2254.85 857.797 2259.76 856.365C2264.67 854.933 2270.15 851.557 2276.18 846.237V812.935C2259 814.879 2247.49 817.386 2241.65 820.455C2235.82 823.524 2231.63 826.696 2229.07 829.97C2226.62 833.244 2225.39 837.131 2225.39 841.633ZM2350.46 736.358C2347.9 728.378 2349.59 724.388 2355.52 724.388H2382.99C2387.8 724.388 2390.87 726.997 2392.2 732.214L2415.99 822.143C2417.32 827.156 2418.39 832.118 2419.21 837.029C2420.13 841.94 2420.69 845.93 2420.9 848.999H2421.82C2422.02 845.93 2422.54 841.94 2423.35 837.029C2424.27 832.118 2425.4 827.156 2426.73 822.143L2450.52 732.214C2451.85 726.997 2454.92 724.388 2459.72 724.388H2487.19C2493.13 724.388 2494.82 728.378 2492.26 736.358L2447.75 875.241C2445.61 882.096 2441.87 885.523 2436.55 885.523H2406.17C2400.85 885.523 2397.11 882.096 2394.96 875.241L2350.46 736.358ZM2507.14 804.955C2507.14 779.071 2513.59 758.661 2526.48 743.724C2539.47 728.787 2557.79 721.318 2581.42 721.318C2608.84 721.318 2629.2 728.378 2642.5 742.496C2655.8 756.615 2662.45 779.327 2662.45 810.633C2662.45 816.772 2659.58 819.841 2653.85 819.841H2552.57C2554.21 836.824 2558.4 847.515 2565.15 851.915C2571.91 856.314 2579.73 858.514 2588.63 858.514C2597.12 858.514 2603.62 857.388 2608.12 855.137C2612.62 852.887 2616.41 849.817 2619.48 845.93C2622.96 841.428 2627.25 840.712 2632.37 843.781L2647.72 853.142C2653.75 856.826 2654.62 861.225 2650.32 866.34C2644.08 873.809 2636.77 879.384 2628.38 883.068C2619.99 886.751 2606.74 888.592 2588.63 888.592C2559.27 888.592 2538.35 881.124 2525.87 866.187C2513.39 851.25 2507.14 830.839 2507.14 804.955ZM2552.72 789.149H2619.48C2619.48 778.099 2616.72 769.096 2611.19 762.139C2605.67 755.08 2596.87 751.55 2584.8 751.55C2575.18 751.55 2567.56 754.927 2561.93 761.679C2556.3 768.329 2553.23 777.486 2552.72 789.149ZM2705.11 885.523C2698.97 885.523 2695.9 882.454 2695.9 876.315V695.076C2695.9 690.473 2696.98 686.278 2699.13 682.493L2710.94 661.775C2713.19 657.887 2715.85 655.944 2718.92 655.944H2729.66C2735.8 655.944 2738.87 659.013 2738.87 665.151V876.315C2738.87 882.454 2735.8 885.523 2729.66 885.523H2705.11Z" fill="#055173"/>
<path d="M2795.04 885.523C2787.88 885.523 2784.3 881.686 2784.3 874.013V676.968C2784.3 669.295 2787.88 665.458 2795.04 665.458H2839.54C2845.48 665.458 2849.72 669.551 2852.28 677.735L2893.87 812.322C2895.71 818.153 2896.99 822.962 2897.71 826.747C2898.42 830.43 2899.04 834.829 2899.55 839.945H2900.47C2900.98 834.829 2901.59 830.43 2902.31 826.747C2903.03 822.962 2904.3 818.153 2906.15 812.322L2947.73 677.735C2950.29 669.551 2954.54 665.458 2960.47 665.458H3004.98C3012.14 665.458 3015.72 669.295 3015.72 676.968V874.013C3015.72 881.686 3012.14 885.523 3004.98 885.523H2981.65C2974.49 885.523 2970.91 881.686 2970.91 874.013V747.254C2970.91 741.115 2971.16 734.977 2971.67 728.838H2970.6L2926.25 873.093C2923.69 881.379 2919.29 885.523 2913.05 885.523H2886.96C2880.72 885.523 2876.32 881.379 2873.77 873.093L2829.41 728.838H2828.34C2828.85 734.977 2829.11 741.115 2829.11 747.254V874.013C2829.11 881.686 2825.53 885.523 2818.37 885.523H2795.04ZM3052.55 804.955C3052.55 778.867 3059.25 758.405 3072.65 743.57C3086.16 728.736 3106.21 721.318 3132.81 721.318C3159.41 721.318 3179.41 728.736 3192.81 743.57C3206.32 758.405 3213.07 778.867 3213.07 804.955C3213.07 831.044 3206.32 851.506 3192.81 866.34C3179.41 881.175 3159.41 888.592 3132.81 888.592C3106.21 888.592 3086.16 881.175 3072.65 866.34C3059.25 851.506 3052.55 831.044 3052.55 804.955ZM3097.97 804.955C3097.97 824.394 3100.94 838.205 3106.87 846.39C3112.91 854.472 3121.56 858.514 3132.81 858.514C3144.06 858.514 3152.66 854.472 3158.59 846.39C3164.63 838.205 3167.65 824.394 3167.65 804.955C3167.65 785.517 3164.63 771.756 3158.59 763.674C3152.66 755.489 3144.06 751.397 3132.81 751.397C3121.56 751.397 3112.91 755.489 3106.87 763.674C3100.94 771.756 3097.97 785.517 3097.97 804.955ZM3255.43 885.523C3249.29 885.523 3246.22 882.454 3246.22 876.315V733.595C3246.22 727.457 3249.29 724.388 3255.43 724.388H3279.67C3285.81 724.388 3288.88 727.457 3288.88 733.595V742.496H3289.49C3294.2 734.414 3300.19 728.889 3307.45 725.922C3314.71 722.853 3323.46 721.318 3333.69 721.318C3349.65 721.318 3362.85 726.332 3373.28 736.358C3383.72 746.384 3388.94 764.697 3388.94 791.297V876.315C3388.94 882.454 3385.87 885.523 3379.73 885.523H3355.18C3349.04 885.523 3345.97 882.454 3345.97 876.315V802.346C3345.97 780.043 3344.43 765.976 3341.36 760.144C3338.3 754.313 3331.7 751.397 3321.57 751.397C3310.83 751.397 3302.74 755.592 3297.32 763.981C3291.9 772.268 3289.19 789.558 3289.19 815.851V876.315C3289.19 882.454 3286.12 885.523 3279.98 885.523H3255.43ZM3421.78 804.955C3421.78 779.071 3428.22 758.661 3441.11 743.724C3454.11 728.787 3472.42 721.318 3496.05 721.318C3523.47 721.318 3543.83 728.378 3557.13 742.496C3570.43 756.615 3577.08 779.327 3577.08 810.633C3577.08 816.772 3574.22 819.841 3568.49 819.841H3467.2C3468.84 836.824 3473.04 847.515 3479.79 851.915C3486.54 856.314 3494.37 858.514 3503.27 858.514C3511.76 858.514 3518.26 857.388 3522.76 855.137C3527.26 852.887 3531.04 849.817 3534.11 845.93C3537.59 841.428 3541.89 840.712 3547 843.781L3562.35 853.142C3568.39 856.826 3569.26 861.225 3564.96 866.34C3558.72 873.809 3551.4 879.384 3543.01 883.068C3534.62 886.751 3521.38 888.592 3503.27 888.592C3473.9 888.592 3452.98 881.124 3440.5 866.187C3428.02 851.25 3421.78 830.839 3421.78 804.955ZM3467.36 789.149H3534.11C3534.11 778.099 3531.35 769.096 3525.83 762.139C3520.3 755.08 3511.5 751.55 3499.43 751.55C3489.81 751.55 3482.19 754.927 3476.56 761.679C3470.94 768.329 3467.87 777.486 3467.36 789.149ZM3600.56 736.358C3597.8 728.378 3599.49 724.388 3605.63 724.388H3633.1C3637.8 724.388 3640.87 726.997 3642.3 732.214L3665.48 818C3666.6 821.99 3667.57 827.156 3668.39 833.499C3669.31 839.74 3669.77 843.73 3669.77 845.469H3670.69C3671.92 840.047 3672.79 835.75 3673.3 832.579C3673.92 829.305 3675.5 823.013 3678.06 813.703L3700.01 732.214C3701.44 726.997 3704.51 724.388 3709.21 724.388H3736.68C3742.72 724.388 3744.41 728.378 3741.75 736.358L3690.03 891.968C3683.99 910.179 3676.58 924.4 3667.78 934.631C3658.98 944.862 3646.75 949.977 3631.1 949.977C3622.51 949.977 3614.83 949.261 3608.08 947.829C3604.19 947.01 3602.71 944.35 3603.63 939.849L3607.01 922.968C3607.93 918.568 3610.54 917.034 3614.83 918.364C3618.01 919.387 3620.97 919.898 3623.73 919.898C3632.02 919.898 3638.31 915.96 3642.61 908.082C3647.01 900.204 3649.93 893.452 3651.36 887.825L3651.82 885.523L3600.56 736.358Z" fill="#F9A605"/>
<path opacity="0.8" d="M2592.64 982.144V1054.03H2581.79V982.144H2592.64ZM2618.09 1022.02V1054.03H2607.59V1000.12H2617.66V1008.89H2618.33C2619.57 1006.04 2621.51 1003.74 2624.16 1002.01C2626.83 1000.28 2630.18 999.415 2634.23 999.415C2637.91 999.415 2641.12 1000.19 2643.89 1001.73C2646.65 1003.25 2648.79 1005.52 2650.31 1008.54C2651.83 1011.56 2652.59 1015.29 2652.59 1019.74V1054.03H2642.1V1021C2642.1 1017.09 2641.08 1014.04 2639.04 1011.84C2637.01 1009.62 2634.21 1008.51 2630.65 1008.51C2628.22 1008.51 2626.05 1009.03 2624.16 1010.09C2622.29 1011.14 2620.8 1012.68 2619.7 1014.72C2618.62 1016.73 2618.09 1019.17 2618.09 1022.02ZM2710.86 1000.12L2691.31 1054.03H2680.08L2660.49 1000.12H2671.76L2685.41 1041.61H2685.97L2699.59 1000.12H2710.86ZM2742.13 1055.12C2736.82 1055.12 2732.24 1053.99 2728.4 1051.72C2724.59 1049.42 2721.64 1046.21 2719.56 1042.06C2717.5 1037.9 2716.47 1033.02 2716.47 1027.43C2716.47 1021.9 2717.5 1017.04 2719.56 1012.82C2721.64 1008.61 2724.54 1005.32 2728.26 1002.96C2732.01 1000.6 2736.38 999.415 2741.39 999.415C2744.43 999.415 2747.38 999.918 2750.24 1000.92C2753.09 1001.93 2755.66 1003.51 2757.93 1005.66C2760.2 1007.82 2761.99 1010.61 2763.3 1014.05C2764.61 1017.47 2765.26 1021.62 2765.26 1026.51V1030.23H2722.4V1022.37H2754.98C2754.98 1019.61 2754.42 1017.17 2753.29 1015.04C2752.17 1012.88 2750.59 1011.19 2748.55 1009.95C2746.54 1008.71 2744.18 1008.09 2741.46 1008.09C2738.51 1008.09 2735.94 1008.81 2733.74 1010.26C2731.56 1011.69 2729.88 1013.56 2728.69 1015.88C2727.52 1018.17 2726.93 1020.66 2726.93 1023.35V1029.5C2726.93 1033.1 2727.56 1036.17 2728.83 1038.69C2730.11 1041.22 2731.9 1043.15 2734.2 1044.49C2736.49 1045.8 2739.17 1046.45 2742.23 1046.45C2744.22 1046.45 2746.04 1046.17 2747.68 1045.61C2749.31 1045.02 2750.73 1044.16 2751.92 1043.01C2753.12 1041.87 2754.03 1040.45 2754.66 1038.76L2764.6 1040.56C2763.8 1043.48 2762.37 1046.04 2760.31 1048.24C2758.28 1050.42 2755.71 1052.12 2752.63 1053.33C2749.56 1054.53 2746.06 1055.12 2742.13 1055.12ZM2817.31 1013.28L2807.8 1014.97C2807.4 1013.75 2806.77 1012.59 2805.9 1011.49C2805.06 1010.39 2803.91 1009.49 2802.46 1008.79C2801.01 1008.09 2799.2 1007.73 2797.02 1007.73C2794.05 1007.73 2791.57 1008.4 2789.58 1009.73C2787.59 1011.05 2786.6 1012.74 2786.6 1014.82C2786.6 1016.63 2787.26 1018.08 2788.6 1019.18C2789.93 1020.28 2792.08 1021.18 2795.06 1021.88L2803.62 1023.85C2808.58 1024.99 2812.28 1026.76 2814.71 1029.15C2817.15 1031.53 2818.36 1034.63 2818.36 1038.45C2818.36 1041.68 2817.43 1044.56 2815.56 1047.08C2813.71 1049.59 2811.12 1051.55 2807.8 1052.98C2804.5 1054.41 2800.67 1055.12 2796.32 1055.12C2790.28 1055.12 2785.36 1053.84 2781.54 1051.26C2777.73 1048.66 2775.39 1044.98 2774.52 1040.2L2784.67 1038.66C2785.3 1041.3 2786.6 1043.3 2788.56 1044.66C2790.53 1046 2793.09 1046.66 2796.25 1046.66C2799.69 1046.66 2802.44 1045.95 2804.5 1044.52C2806.56 1043.07 2807.59 1041.3 2807.59 1039.22C2807.59 1037.54 2806.96 1036.12 2805.69 1034.97C2804.45 1033.83 2802.54 1032.96 2799.97 1032.38L2790.84 1030.38C2785.81 1029.23 2782.09 1027.4 2779.68 1024.9C2777.29 1022.4 2776.1 1019.22 2776.1 1015.39C2776.1 1012.2 2776.99 1009.42 2778.77 1007.03C2780.55 1004.65 2783 1002.78 2786.14 1001.45C2789.28 1000.09 2792.87 999.415 2796.92 999.415C2802.74 999.415 2807.33 1000.68 2810.68 1003.21C2814.02 1005.71 2816.23 1009.07 2817.31 1013.28ZM2855.07 1000.12V1008.54H2825.62V1000.12H2855.07ZM2833.52 987.199H2844.02V1038.2C2844.02 1040.24 2844.32 1041.77 2844.93 1042.8C2845.54 1043.81 2846.32 1044.5 2847.28 1044.87C2848.26 1045.22 2849.33 1045.4 2850.47 1045.4C2851.32 1045.4 2852.05 1045.34 2852.69 1045.22C2853.32 1045.11 2853.81 1045.01 2854.16 1044.94L2856.06 1053.61C2855.45 1053.85 2854.58 1054.08 2853.46 1054.32C2852.33 1054.57 2850.93 1054.71 2849.25 1054.74C2846.48 1054.78 2843.91 1054.29 2841.52 1053.26C2839.14 1052.23 2837.21 1050.64 2835.73 1048.49C2834.26 1046.34 2833.52 1043.63 2833.52 1040.38V987.199ZM2899.76 1054.7C2897.84 1054.7 2896.19 1054.02 2894.81 1052.67C2893.43 1051.28 2892.74 1049.62 2892.74 1047.68C2892.74 1045.76 2893.43 1044.12 2894.81 1042.77C2896.19 1041.39 2897.84 1040.7 2899.76 1040.7C2901.68 1040.7 2903.33 1041.39 2904.71 1042.77C2906.09 1044.12 2906.78 1045.76 2906.78 1047.68C2906.78 1048.97 2906.45 1050.15 2905.8 1051.23C2905.16 1052.28 2904.32 1053.12 2903.27 1053.75C2902.22 1054.39 2901.05 1054.7 2899.76 1054.7ZM2943.14 991.482V982.144H2998.77V991.482H2976.34V1054.03H2965.53V991.482H2943.14ZM3004.63 1054.03V1000.12H3014.77V1008.68H3015.33C3016.32 1005.78 3018.05 1003.5 3020.53 1001.84C3023.03 1000.15 3025.87 999.309 3029.02 999.309C3029.68 999.309 3030.45 999.333 3031.34 999.38C3032.25 999.426 3032.97 999.485 3033.48 999.555V1009.59C3033.06 1009.48 3032.31 1009.35 3031.24 1009.21C3030.16 1009.04 3029.08 1008.96 3028.01 1008.96C3025.53 1008.96 3023.31 1009.49 3021.37 1010.54C3019.45 1011.57 3017.93 1013.01 3016.81 1014.86C3015.69 1016.69 3015.12 1018.77 3015.12 1021.11V1054.03H3004.63ZM3057.77 1055.23C3054.36 1055.23 3051.27 1054.6 3048.51 1053.33C3045.75 1052.05 3043.56 1050.19 3041.94 1047.75C3040.35 1045.32 3039.56 1042.33 3039.56 1038.8C3039.56 1035.76 3040.14 1033.25 3041.31 1031.29C3042.48 1029.32 3044.06 1027.77 3046.05 1026.62C3048.04 1025.47 3050.26 1024.61 3052.72 1024.02C3055.18 1023.44 3057.68 1022.99 3060.23 1022.69C3063.46 1022.31 3066.08 1022.01 3068.09 1021.78C3070.11 1021.52 3071.57 1021.11 3072.48 1020.55C3073.39 1019.98 3073.85 1019.07 3073.85 1017.81V1017.56C3073.85 1014.5 3072.98 1012.12 3071.25 1010.44C3069.54 1008.75 3066.99 1007.91 3063.6 1007.91C3060.07 1007.91 3057.28 1008.69 3055.25 1010.26C3053.23 1011.81 3051.84 1013.53 3051.07 1015.42L3041.21 1013.18C3042.38 1009.9 3044.08 1007.25 3046.33 1005.24C3048.6 1003.21 3051.21 1001.73 3054.16 1000.82C3057.11 999.883 3060.21 999.415 3063.46 999.415C3065.61 999.415 3067.9 999.672 3070.31 1000.19C3072.74 1000.68 3075.01 1001.59 3077.12 1002.93C3079.24 1004.26 3080.99 1006.17 3082.35 1008.65C3083.7 1011.1 3084.38 1014.3 3084.38 1018.23V1054.03H3074.13V1046.66H3073.71C3073.03 1048.02 3072.01 1049.35 3070.66 1050.66C3069.3 1051.98 3067.56 1053.06 3065.43 1053.93C3063.3 1054.8 3060.75 1055.23 3057.77 1055.23ZM3060.06 1046.8C3062.96 1046.8 3065.44 1046.23 3067.5 1045.08C3069.58 1043.94 3071.16 1042.44 3072.24 1040.59C3073.34 1038.72 3073.89 1036.72 3073.89 1034.59V1027.64C3073.51 1028.01 3072.79 1028.36 3071.71 1028.69C3070.66 1028.99 3069.45 1029.26 3068.09 1029.5C3066.74 1029.71 3065.41 1029.91 3064.13 1030.09C3062.84 1030.26 3061.76 1030.4 3060.9 1030.52C3058.86 1030.77 3057 1031.21 3055.32 1031.81C3053.66 1032.42 3052.32 1033.3 3051.31 1034.45C3050.33 1035.57 3049.84 1037.07 3049.84 1038.94C3049.84 1041.54 3050.8 1043.5 3052.72 1044.84C3054.64 1046.15 3057.08 1046.8 3060.06 1046.8ZM3142.56 1000.12L3123 1054.03H3111.77L3092.18 1000.12H3103.45L3117.11 1041.61H3117.67L3131.29 1000.12H3142.56ZM3173.82 1055.12C3168.51 1055.12 3163.94 1053.99 3160.1 1051.72C3156.28 1049.42 3153.34 1046.21 3151.25 1042.06C3149.19 1037.9 3148.16 1033.02 3148.16 1027.43C3148.16 1021.9 3149.19 1017.04 3151.25 1012.82C3153.34 1008.61 3156.24 1005.32 3159.96 1002.96C3163.7 1000.6 3168.08 999.415 3173.09 999.415C3176.13 999.415 3179.08 999.918 3181.93 1000.92C3184.79 1001.93 3187.35 1003.51 3189.62 1005.66C3191.89 1007.82 3193.68 1010.61 3194.99 1014.05C3196.3 1017.47 3196.96 1021.62 3196.96 1026.51V1030.23H3154.1V1022.37H3186.67C3186.67 1019.61 3186.11 1017.17 3184.99 1015.04C3183.86 1012.88 3182.28 1011.19 3180.25 1009.95C3178.23 1008.71 3175.87 1008.09 3173.16 1008.09C3170.21 1008.09 3167.63 1008.81 3165.43 1010.26C3163.26 1011.69 3161.57 1013.56 3160.38 1015.88C3159.21 1018.17 3158.62 1020.66 3158.62 1023.35V1029.5C3158.62 1033.1 3159.26 1036.17 3160.52 1038.69C3161.81 1041.22 3163.6 1043.15 3165.89 1044.49C3168.18 1045.8 3170.86 1046.45 3173.93 1046.45C3175.92 1046.45 3177.73 1046.17 3179.37 1045.61C3181.01 1045.02 3182.42 1044.16 3183.62 1043.01C3184.81 1041.87 3185.72 1040.45 3186.36 1038.76L3196.29 1040.56C3195.49 1043.48 3194.07 1046.04 3192.01 1048.24C3189.97 1050.42 3187.41 1052.12 3184.32 1053.33C3181.25 1054.53 3177.76 1055.12 3173.82 1055.12ZM3219.1 982.144V1054.03H3208.6V982.144H3219.1ZM3266.29 1054.7C3264.37 1054.7 3262.72 1054.02 3261.34 1052.67C3259.96 1051.28 3259.27 1049.62 3259.27 1047.68C3259.27 1045.76 3259.96 1044.12 3261.34 1042.77C3262.72 1041.39 3264.37 1040.7 3266.29 1040.7C3268.21 1040.7 3269.86 1041.39 3271.24 1042.77C3272.62 1044.12 3273.31 1045.76 3273.31 1047.68C3273.31 1048.97 3272.99 1050.15 3272.33 1051.23C3271.7 1052.28 3270.86 1053.12 3269.8 1053.75C3268.75 1054.39 3267.58 1054.7 3266.29 1054.7ZM3313.22 1054.03V982.144H3357.8V991.482H3324.06V1013.39H3354.6V1022.69H3324.06V1054.03H3313.22ZM3370.29 1054.03V1000.12H3380.79V1054.03H3370.29ZM3375.59 991.797C3373.77 991.797 3372.2 991.189 3370.89 989.972C3369.6 988.732 3368.96 987.257 3368.96 985.549C3368.96 983.817 3369.6 982.343 3370.89 981.126C3372.2 979.886 3373.77 979.266 3375.59 979.266C3377.42 979.266 3378.98 979.886 3380.26 981.126C3381.57 982.343 3382.23 983.817 3382.23 985.549C3382.23 987.257 3381.57 988.732 3380.26 989.972C3378.98 991.189 3377.42 991.797 3375.59 991.797ZM3405.41 1022.02V1054.03H3394.91V1000.12H3404.98V1008.89H3405.65C3406.89 1006.04 3408.83 1003.74 3411.48 1002.01C3414.15 1000.28 3417.5 999.415 3421.55 999.415C3425.23 999.415 3428.44 1000.19 3431.21 1001.73C3433.97 1003.25 3436.11 1005.52 3437.63 1008.54C3439.15 1011.56 3439.91 1015.29 3439.91 1019.74V1054.03H3429.42V1021C3429.42 1017.09 3428.4 1014.04 3426.36 1011.84C3424.33 1009.62 3421.53 1008.51 3417.97 1008.51C3415.54 1008.51 3413.37 1009.03 3411.48 1010.09C3409.61 1011.14 3408.12 1012.68 3407.02 1014.72C3405.94 1016.73 3405.41 1019.17 3405.41 1022.02ZM3469.68 1055.23C3466.26 1055.23 3463.17 1054.6 3460.41 1053.33C3457.65 1052.05 3455.46 1050.19 3453.85 1047.75C3452.26 1045.32 3451.46 1042.33 3451.46 1038.8C3451.46 1035.76 3452.05 1033.25 3453.22 1031.29C3454.39 1029.32 3455.97 1027.77 3457.95 1026.62C3459.94 1025.47 3462.17 1024.61 3464.62 1024.02C3467.08 1023.44 3469.59 1022.99 3472.14 1022.69C3475.37 1022.31 3477.99 1022.01 3480 1021.78C3482.01 1021.52 3483.47 1021.11 3484.39 1020.55C3485.3 1019.98 3485.76 1019.07 3485.76 1017.81V1017.56C3485.76 1014.5 3484.89 1012.12 3483.16 1010.44C3481.45 1008.75 3478.9 1007.91 3475.51 1007.91C3471.97 1007.91 3469.19 1008.69 3467.15 1010.26C3465.14 1011.81 3463.75 1013.53 3462.97 1015.42L3453.11 1013.18C3454.28 1009.9 3455.99 1007.25 3458.24 1005.24C3460.51 1003.21 3463.11 1001.73 3466.06 1000.82C3469.01 999.883 3472.11 999.415 3475.37 999.415C3477.52 999.415 3479.8 999.672 3482.21 1000.19C3484.64 1000.68 3486.91 1001.59 3489.02 1002.93C3491.15 1004.26 3492.89 1006.17 3494.25 1008.65C3495.61 1011.1 3496.29 1014.3 3496.29 1018.23V1054.03H3486.04V1046.66H3485.62C3484.94 1048.02 3483.92 1049.35 3482.56 1050.66C3481.2 1051.98 3479.46 1053.06 3477.33 1053.93C3475.2 1054.8 3472.65 1055.23 3469.68 1055.23ZM3471.96 1046.8C3474.86 1046.8 3477.34 1046.23 3479.4 1045.08C3481.48 1043.94 3483.06 1042.44 3484.14 1040.59C3485.24 1038.72 3485.79 1036.72 3485.79 1034.59V1027.64C3485.42 1028.01 3484.69 1028.36 3483.61 1028.69C3482.56 1028.99 3481.36 1029.26 3480 1029.5C3478.64 1029.71 3477.32 1029.91 3476.03 1030.09C3474.75 1030.26 3473.67 1030.4 3472.8 1030.52C3470.77 1030.77 3468.91 1031.21 3467.22 1031.81C3465.56 1032.42 3464.23 1033.3 3463.22 1034.45C3462.24 1035.57 3461.75 1037.07 3461.75 1038.94C3461.75 1041.54 3462.7 1043.5 3464.62 1044.84C3466.54 1046.15 3468.99 1046.8 3471.96 1046.8ZM3520.76 1022.02V1054.03H3510.27V1000.12H3520.34V1008.89H3521.01C3522.25 1006.04 3524.19 1003.74 3526.83 1002.01C3529.5 1000.28 3532.86 999.415 3536.91 999.415C3540.58 999.415 3543.8 1000.19 3546.56 1001.73C3549.32 1003.25 3551.47 1005.52 3552.99 1008.54C3554.51 1011.56 3555.27 1015.29 3555.27 1019.74V1054.03H3544.77V1021C3544.77 1017.09 3543.75 1014.04 3541.72 1011.84C3539.68 1009.62 3536.89 1008.51 3533.33 1008.51C3530.89 1008.51 3528.73 1009.03 3526.83 1010.09C3524.96 1011.14 3523.48 1012.68 3522.38 1014.72C3521.3 1016.73 3520.76 1019.17 3520.76 1022.02ZM3592.06 1055.12C3586.84 1055.12 3582.34 1053.94 3578.58 1051.58C3574.83 1049.19 3571.95 1045.9 3569.94 1041.71C3567.93 1037.52 3566.92 1032.73 3566.92 1027.32C3566.92 1021.85 3567.95 1017.01 3570.01 1012.82C3572.07 1008.61 3574.97 1005.32 3578.72 1002.96C3582.46 1000.6 3586.87 999.415 3591.95 999.415C3596.05 999.415 3599.7 1000.18 3602.9 1001.7C3606.11 1003.19 3608.69 1005.3 3610.66 1008.01C3612.65 1010.73 3613.83 1013.9 3614.21 1017.53H3603.99C3603.43 1015 3602.14 1012.82 3600.13 1011C3598.14 1009.17 3595.47 1008.26 3592.13 1008.26C3589.2 1008.26 3586.64 1009.03 3584.44 1010.58C3582.26 1012.1 3580.57 1014.27 3579.35 1017.11C3578.13 1019.91 3577.52 1023.24 3577.52 1027.08C3577.52 1031.01 3578.12 1034.4 3579.31 1037.26C3580.51 1040.11 3582.19 1042.32 3584.37 1043.89C3586.57 1045.46 3589.15 1046.24 3592.13 1046.24C3594.12 1046.24 3595.92 1045.88 3597.53 1045.15C3599.17 1044.4 3600.54 1043.34 3601.64 1041.96C3602.76 1040.58 3603.55 1038.92 3603.99 1036.97H3614.21C3613.83 1040.46 3612.7 1043.57 3610.8 1046.31C3608.91 1049.05 3606.37 1051.2 3603.18 1052.77C3600.02 1054.34 3596.31 1055.12 3592.06 1055.12ZM3648.67 1055.12C3643.36 1055.12 3638.78 1053.99 3634.94 1051.72C3631.13 1049.42 3628.18 1046.21 3626.1 1042.06C3624.04 1037.9 3623.01 1033.02 3623.01 1027.43C3623.01 1021.9 3624.04 1017.04 3626.1 1012.82C3628.18 1008.61 3631.08 1005.32 3634.8 1002.96C3638.55 1000.6 3642.92 999.415 3647.93 999.415C3650.97 999.415 3653.92 999.918 3656.78 1000.92C3659.63 1001.93 3662.19 1003.51 3664.46 1005.66C3666.73 1007.82 3668.52 1010.61 3669.83 1014.05C3671.15 1017.47 3671.8 1021.62 3671.8 1026.51V1030.23H3628.94V1022.37H3661.52C3661.52 1019.61 3660.95 1017.17 3659.83 1015.04C3658.71 1012.88 3657.13 1011.19 3655.09 1009.95C3653.08 1008.71 3650.72 1008.09 3648 1008.09C3645.05 1008.09 3642.48 1008.81 3640.28 1010.26C3638.1 1011.69 3636.42 1013.56 3635.22 1015.88C3634.05 1018.17 3633.47 1020.66 3633.47 1023.35V1029.5C3633.47 1033.1 3634.1 1036.17 3635.36 1038.69C3636.65 1041.22 3638.44 1043.15 3640.73 1044.49C3643.03 1045.8 3645.71 1046.45 3648.77 1046.45C3650.76 1046.45 3652.58 1046.17 3654.21 1045.61C3655.85 1045.02 3657.27 1044.16 3658.46 1043.01C3659.65 1041.87 3660.57 1040.45 3661.2 1038.76L3671.13 1040.56C3670.34 1043.48 3668.91 1046.04 3666.85 1048.24C3664.82 1050.42 3662.25 1052.12 3659.16 1053.33C3656.1 1054.53 3652.6 1055.12 3648.67 1055.12Z" fill="black"/>
<path d="M387.455 656.697L578.812 732.875L480.234 639.118V510.203H613.604L775.967 674.277L631 410.586H387.455V656.697Z" fill="#055173"/>
<path d="M631.456 1159.7L716.593 970L618.257 1065.18L489.426 1059.18L495.706 924.489L667.317 768.168L396.975 902.279L385.507 1148.23L631.456 1159.7Z" fill="#F9A605"/>
<path d="M898.475 410.152L825.797 604.961L917.765 503.613L1046.71 501.266L1049.17 636.077L888.037 803.18L1149.13 651.848L1144.65 405.672L898.475 410.152Z" fill="#F9A605"/>
<path d="M1143.04 916.258L950.753 837.156L1048.99 932.436L1047.06 1061.39L912.243 1059.37L750.579 892.783L893.163 1158.75L1139.35 1162.45L1143.04 916.258Z" fill="#055173"/>
<path d="M948.217 687.07L904.919 642.001V629.124H927.453C933.141 629.124 938.051 627.274 942.184 623.574C946.318 619.875 948.812 615.286 949.666 609.809H898.48V596.932H947.734C945.91 593.177 943.199 590.093 939.603 587.68C936.006 585.268 931.956 584.06 927.453 584.056H898.48V571.179H975.741V584.056H954.817C956.319 585.88 957.66 587.865 958.841 590.011C960.021 592.157 960.933 594.464 961.577 596.932H975.741V609.809H962.704C961.845 618.93 958.089 626.577 951.436 632.749C944.783 638.921 936.789 642.005 927.453 642.001H922.785L966.084 687.07H948.217Z" fill="#055173"/>
<path d="M534.065 617.534H546.942C546.942 624.487 555.763 630.411 566.257 630.411C576.752 630.411 585.573 624.487 585.573 617.534C585.573 610.452 578.877 607.876 564.712 604.464C551.063 601.051 534.065 596.802 534.065 578.903C534.065 567.379 543.53 557.592 556.6 554.309V540.273H575.915V554.309C588.985 557.592 598.449 567.379 598.449 578.903H585.573C585.573 571.95 576.752 566.027 566.257 566.027C555.763 566.027 546.942 571.95 546.942 578.903C546.942 585.986 553.638 588.561 567.803 591.973C581.452 595.386 598.449 599.635 598.449 617.534C598.449 629.059 588.985 638.845 575.915 642.129V656.164H556.6V642.129C543.53 638.845 534.065 629.059 534.065 617.534Z" fill="#F9A605"/>
<g clip-path="url(#clip0_449_21)">
<path d="M614.862 981.043C601.695 981.043 590.213 973.424 584.525 962.264H614.862L620.129 951.534H581.049C580.785 949.763 580.627 947.993 580.627 946.168C580.627 944.344 580.785 942.574 581.049 940.803H614.862L620.129 930.072H584.525C587.409 924.413 591.764 919.669 597.114 916.358C602.463 913.046 608.603 911.295 614.862 911.294C623.342 911.294 631.137 914.459 637.141 919.717L646.464 910.221C637.791 902.266 626.532 897.87 614.862 897.88C594.216 897.88 576.73 911.294 570.094 930.072H551.659L546.393 940.803H567.776C567.46 942.574 567.46 944.344 567.46 946.168C567.46 947.993 567.46 949.763 567.776 951.534H551.659L546.393 962.264H570.094C576.73 981.043 594.216 994.456 614.862 994.456C627.029 994.456 638.089 989.789 646.464 982.116L637.089 972.62C631.137 977.878 623.395 981.043 614.862 981.043Z" fill="#055173"/>
</g>
<path d="M956.243 1009.36C968.314 1009.36 978.884 1001.82 981.26 990.042L970.315 984.377C968.752 991.394 964.561 996.481 956.243 996.481H925.596C930.787 990.042 934.978 981.415 934.978 970.727C934.978 968.474 934.79 966.285 934.352 964.289H956.243V951.412H930.099C924.97 941.239 918.716 935.96 918.716 925.658C918.718 920.375 920.523 915.261 923.815 911.209C927.108 907.157 931.679 904.424 936.73 903.489C941.781 902.553 946.99 903.474 951.448 906.09C955.907 908.707 959.33 912.853 961.121 917.803L972.692 912.781C967.688 899.583 955.242 890.247 940.607 890.247C921.593 890.247 906.207 906.086 906.207 925.658C906.207 937.119 911.148 944.33 915.589 951.412H906.207V964.289H921.656C922.156 966.285 922.469 968.409 922.469 970.727C922.469 988.111 906.207 996.481 906.207 996.481V1009.36H956.243Z" fill="#F9A605"/>
<path d="M1378.08 547.509C1325.22 408.215 1225.69 291.559 1096.46 217.418C967.231 143.278 816.291 116.24 669.36 140.911C522.429 165.583 388.598 240.438 290.67 352.722C192.743 465.005 136.777 607.77 132.31 756.691C127.843 905.612 175.15 1051.48 266.172 1169.43C357.193 1287.38 486.297 1370.12 631.485 1403.55C776.673 1436.99 928.962 1419.05 1062.4 1352.79C1195.85 1286.52 1302.19 1176.04 1363.3 1040.17L1315.64 1018.73C1259.49 1143.58 1161.78 1245.09 1039.16 1305.98C916.549 1366.86 776.618 1383.35 643.213 1352.63C509.807 1321.91 391.18 1245.88 307.545 1137.5C223.911 1029.12 180.442 895.094 184.547 758.258C188.652 621.422 240.075 490.243 330.056 387.072C420.036 283.9 543.007 215.12 678.014 192.45C813.021 169.781 951.712 194.624 1070.46 262.748C1189.2 330.872 1280.65 438.061 1329.22 566.052L1378.08 547.509Z" fill="#055173"/>
<defs>
<clipPath id="clip0_449_21">
<rect width="150.107" height="154.522" fill="white" transform="translate(546.393 878.566)"/>
</clipPath>
</defs>
</svg>
