<svg width="25" height="25" viewBox="0 0 25 25" fill="none" xmlns="http://www.w3.org/2000/svg">
<g opacity="0.66">
<path d="M4.16675 10.9333V15.625C4.16675 16.4538 4.49599 17.2487 5.08204 17.8347C5.66809 18.4208 6.46295 18.75 7.29175 18.75H17.7084C18.5372 18.75 19.3321 18.4208 19.9181 17.8347C20.5042 17.2487 20.8334 16.4538 20.8334 15.625V10.9333L12.9272 14.4917C12.7929 14.552 12.6473 14.5832 12.5001 14.5832C12.3528 14.5832 12.2073 14.552 12.073 14.4917L4.16675 10.9333ZM4.24383 8.68333L12.5001 12.4L20.7563 8.68333C20.5995 7.99224 20.2124 7.37498 19.6586 6.93283C19.1047 6.49068 18.4171 6.2499 17.7084 6.25H7.29175C6.58308 6.2499 5.89542 6.49068 5.3416 6.93283C4.78778 7.37498 4.40068 7.99224 4.24383 8.68333Z" fill="white"/>
</g>
</svg>
